<svg width="32" height="32" viewBox="0 0 32 32" fill="#262626" xmlns="http://www.w3.org/2000/svg">
<path d="M31.7377 9.10638C31.2348 7.17731 30.0056 5.56028 28.3013 4.56738C27.1838 3.91489 25.9266 3.57447 24.6135 3.57447H15.1983L15.1425 3.46099C15.1425 3.40426 15.1145 3.37589 15.0866 3.31915C15.0866 3.29078 15.0587 3.29078 15.0307 3.26241C15.0307 3.26241 15.0028 3.23404 15.0028 3.20567C13.6338 1.19149 11.3708 0 8.9402 0H7.37567C3.32464 0 0 3.37589 0 7.48936C0 8.76596 0.307319 10.0142 0.921958 11.0922L10.6165 28.2269C11.9575 30.5816 14.3323 32 17.0143 32C19.6964 32 22.0711 30.5816 23.4122 28.2269L31.0951 14.6667C32.0171 12.9645 32.2406 11.0071 31.7377 9.10638ZM23.1886 19.8865L19.6964 26.0709C19.1376 27.0638 18.1318 27.6596 16.9864 27.6596C15.8689 27.6596 14.8631 27.0638 14.3043 26.0709L4.66567 9.02128C4.41422 8.56738 4.27453 8.02837 4.27453 7.48936C4.27453 5.75887 5.67144 4.34043 7.37567 4.34043H8.9402C9.97391 4.34043 10.9238 4.85106 11.5105 5.70213L17.2937 15.8865L17.5731 16.3972H17.601C18.2436 17.4184 19.1097 18.2979 20.1713 18.8936C21.0933 19.461 22.127 19.8014 23.1886 19.8865ZM22.2946 15.1489C21.8476 14.8936 21.4844 14.5248 21.205 14.1277L21.1771 14.0426V13.9574L21.0653 13.8723L17.6848 7.88652H24.6414C25.1723 7.88652 25.7031 8.02837 26.178 8.31206C27.6587 9.19149 28.1616 11.1206 27.3235 12.6241L26.5412 13.9858C26.1222 14.7234 25.4516 15.2624 24.6414 15.461C23.8592 15.6879 22.9931 15.5745 22.2946 15.1489Z"/>
</svg>
